<?xml version="1.0" standalone="no"?>
<!DOCTYPE svg PUBLIC "-//W3C//DTD SVG 20010904//EN"
 "http://www.w3.org/TR/2001/REC-SVG-20010904/DTD/svg10.dtd">
<svg version="1.0" xmlns="http://www.w3.org/2000/svg"
 width="640.000000pt" height="640.000000pt" viewBox="0 0 640.000000 640.000000"
 preserveAspectRatio="xMidYMid meet">
<metadata>
Created by potrace 1.14, written by Peter Selinger 2001-2017
</metadata>
<g transform="translate(0.000000,640.000000) scale(0.100000,-0.100000)"
fill="#000000" stroke="none">
<path d="M2377 5735 c-48 -25 -89 -65 -116 -114 -8 -15 -15 -67 -18 -126 -2
-55 -5 -110 -7 -122 -2 -13 0 -23 3 -23 4 0 4 -29 1 -65 -3 -36 -2 -65 3 -65
4 0 6 -4 3 -8 -3 -5 -6 -27 -7 -50 l-3 -42 -55 0 c-31 0 -65 0 -76 0 -11 0
-36 0 -55 -1 -45 -1 -42 -1 -128 2 -39 1 -74 0 -77 -3 -3 -3 -23 -2 -45 2 -21
4 -44 4 -50 0 -6 -4 -26 -4 -43 -1 -18 4 -51 4 -75 1 -23 -4 -45 -3 -47 1 -3
4 -38 -4 -78 -17 -148 -50 -235 -180 -228 -338 1 -22 4 -43 7 -48 3 -4 2 -8
-3 -8 -8 0 -8 -218 0 -226 2 -3 1 -22 -3 -44 -4 -21 -4 -44 0 -50 4 -6 4 -26
1 -43 -4 -18 -4 -51 -1 -74 4 -24 4 -43 1 -43 -7 0 -5 -219 2 -226 2 -3 1 -22
-3 -44 -4 -21 -4 -43 -1 -49 4 -5 4 -40 1 -76 -3 -37 -3 -68 1 -71 3 -2 3 -21
-1 -43 -4 -22 -4 -45 0 -51 4 -6 4 -26 1 -43 -4 -18 -4 -51 -1 -74 4 -24 4
-43 0 -43 -3 0 -4 -23 0 -50 5 -36 3 -54 -7 -61 -7 -7 -13 -8 -13 -4 0 4 -6 2
-14 -4 -8 -7 -22 -13 -32 -15 -25 -5 -124 -36 -149 -46 -22 -10 -155 -51 -170
-54 -5 -1 -16 -5 -23 -9 -6 -5 -12 -6 -12 -3 0 3 -21 -6 -47 -21 -76 -42 -145
-126 -162 -198 -2 -11 -4 -54 -4 -95 -1 -127 0 -128 415 -544 202 -203 368
-373 368 -378 0 -13 -95 -198 -115 -223 -61 -80 -80 -103 -122 -149 -109 -117
-252 -214 -415 -279 -116 -46 -305 -88 -410 -91 -16 -1 -28 -5 -28 -9 0 -5 -5
-5 -10 -2 -13 8 -84 8 -129 0 -79 -14 -142 -61 -178 -134 -25 -51 -30 -290 -6
-350 9 -23 20 -41 25 -41 4 0 8 -6 8 -12 0 -18 57 -61 108 -81 35 -14 67 -16
190 -12 81 2 158 7 172 10 14 3 45 8 70 11 25 3 77 12 115 20 39 9 77 17 86
19 44 9 171 50 224 72 66 27 227 105 235 114 3 3 30 20 60 38 80 49 205 148
287 229 79 78 74 79 117 -8 32 -66 94 -150 158 -217 104 -108 207 -175 358
-232 161 -60 164 -60 970 -60 734 0 757 1 895 33 53 12 232 89 245 105 3 3 30
23 60 43 64 44 181 162 230 233 19 27 48 78 66 113 l31 64 67 -66 c37 -37 110
-101 164 -142 53 -41 102 -78 107 -82 6 -4 17 -11 25 -15 8 -3 38 -20 65 -37
58 -35 212 -110 227 -110 5 0 22 -6 36 -14 44 -23 245 -79 327 -90 22 -3 56
-8 75 -11 89 -14 113 -16 238 -21 157 -6 209 6 265 62 63 63 72 93 74 245 2
106 -1 146 -14 178 -9 23 -20 41 -25 41 -4 0 -8 6 -8 13 0 15 -60 64 -95 77
-32 12 -83 19 -191 25 -144 8 -304 36 -331 57 -7 6 -13 8 -13 4 0 -3 -30 6
-67 20 -285 106 -501 298 -637 563 -25 49 -46 94 -46 99 0 5 164 174 365 374
201 201 365 370 365 377 0 6 4 11 9 11 8 0 26 38 39 85 4 11 6 54 5 95 0 85
-22 142 -75 201 -63 70 -64 70 -408 179 -132 42 -163 59 -154 84 7 18 10 176
4 176 -3 0 -3 29 0 65 3 36 2 65 -2 65 -4 0 -5 6 -3 13 7 17 11 177 5 177 -3
0 -3 29 0 65 3 36 2 65 -2 65 -4 0 -5 6 -3 13 7 17 11 177 5 177 -3 0 -3 29 0
65 3 36 2 65 -2 65 -4 0 -5 6 -3 13 7 17 11 177 5 177 -3 0 -3 29 0 65 3 36 2
65 -3 65 -4 0 -6 4 -3 9 9 13 9 90 1 141 -12 84 -66 166 -143 219 -40 28 -82
41 -152 47 -30 2 -60 6 -67 9 -7 2 -15 1 -17 -4 -3 -4 -25 -5 -48 -1 -24 3
-57 3 -75 -1 -17 -3 -37 -3 -43 1 -6 4 -29 4 -50 0 -22 -4 -41 -5 -44 -3 -7 7
-226 9 -226 2 0 -3 -19 -3 -42 0 l-43 6 0 108 c0 59 -4 107 -8 107 -5 0 -5 5
-2 10 8 13 7 172 0 214 -14 71 -61 135 -128 173 -30 17 -86 18 -817 20 l-785
2 -48 -24z m-374 -1259 c3 3 40 5 84 4 43 -1 87 -1 98 -1 88 5 135 5 135 1 0
-4 39 -4 125 1 11 0 67 0 125 0 58 -1 133 0 168 1 34 2 62 1 62 -2 0 -3 26 -4
57 -2 32 1 78 2 103 1 25 0 52 0 60 0 8 1 29 1 45 0 34 0 30 0 130 0 100 0 96
0 130 0 17 1 38 1 48 0 9 0 37 0 62 0 25 0 52 0 60 0 8 0 49 0 90 1 41 1 79
-1 84 -5 5 -3 12 -1 16 5 4 6 11 8 16 4 13 -8 216 -7 229 1 5 3 10 2 10 -2 0
-5 29 -6 65 -3 36 3 65 3 65 0 0 -6 160 -2 177 5 7 2 13 1 13 -3 0 -4 28 -5
63 -2 34 3 82 3 107 0 l45 -5 3 -50 c1 -27 3 -57 3 -65 1 -8 0 -28 0 -45 -1
-16 -2 -52 -2 -80 0 -27 -1 -74 -2 -103 -1 -28 0 -52 3 -52 3 0 4 -28 2 -62
-2 -72 -4 -301 -1 -314 1 -5 1 -28 0 -52 -1 -50 5 -50 -146 -1 -55 17 -100 30
-101 28 0 -2 -8 2 -17 10 -10 7 -17 10 -17 7 0 -4 -9 -2 -21 4 -11 6 -28 13
-37 15 -17 3 -239 74 -382 122 -41 14 -82 26 -90 28 -8 2 -85 27 -170 55 -85
28 -163 53 -173 55 -9 2 -22 7 -28 11 -15 9 -160 15 -173 6 -6 -3 -16 -7 -21
-8 -6 -1 -62 -18 -125 -39 -63 -20 -119 -38 -125 -40 -5 -1 -18 -5 -27 -9 -9
-4 -22 -9 -30 -10 -7 -2 -20 -6 -28 -9 -8 -3 -103 -34 -210 -68 -107 -34 -242
-77 -300 -96 -58 -19 -112 -36 -120 -38 -8 -2 -27 -8 -42 -14 -16 -6 -28 -8
-28 -5 0 4 -6 2 -12 -4 -13 -10 -112 -42 -131 -42 -5 0 -7 14 -5 30 3 17 2 33
-2 35 -4 3 -4 22 0 44 4 22 4 45 0 51 -4 6 -4 26 -1 43 4 18 4 51 1 75 -4 23
-4 42 0 42 3 0 3 21 0 48 -3 26 -3 75 0 110 3 35 3 65 -1 68 -3 2 -3 21 1 43
4 22 4 44 0 50 -3 6 -4 33 0 59 3 26 3 58 0 71 -3 13 -4 41 -2 62 3 32 8 38
30 41 15 2 32 0 38 -4 6 -4 13 -5 17 -2z"/>
</g>
</svg>
